Coordinates
version=1
nRows=49
nColumns=12
inDegrees=yes

Units are S.I. units (second, meters, Newtons, ...)
Angles are in degrees

endheader
time	SC_y	SC_z	SC_x	AC_y	AC_z	AC_x	GH_y	GH_z	GH_yy	EL_x	PS_y
       0.0              -39.27         0.3725          77.02          38.24         -9.514          8.366          153.1          60.82          108.2          119.6          65.77
   0.03182              -39.27         0.3745          77.02          38.24         -9.512          8.365          153.1          60.82          108.2          119.6          65.77
   0.06364              -39.27         0.3766          77.02          38.24         -9.511          8.363          153.0          60.82          108.2          119.6          65.76
   0.09547              -39.27         0.3789          77.02          38.24         -9.509          8.362          153.0          60.82          108.1          119.6          65.76
    0.1273              -39.28         0.3813          77.02          38.23         -9.507           8.36          152.9          60.82          108.1          119.6          65.75
    0.1591              -39.28         0.3839          77.02          38.23         -9.505          8.358          152.9          60.82          108.1          119.6          65.75
    0.1909              -39.28         0.3867          77.02          38.23         -9.503          8.356          152.8          60.82          108.1          119.6          65.74
    0.2228              -39.28         0.3896          77.02          38.23         -9.501          8.354          152.8          60.82          108.1          119.5          65.73
    0.2546              -39.29         0.3928          77.02          38.23         -9.499          8.352          152.7          60.82          108.0          119.5          65.73
    0.2864              -39.29         0.3962          77.02          38.23         -9.496           8.35          152.6          60.82          108.0          119.5          65.72
    0.3182              -39.29         0.3998          77.01          38.23         -9.493          8.347          152.6          60.81          108.0          119.5          65.71
      0.35              -39.29         0.4037          77.01          38.22          -9.49          8.344          152.5          60.81          107.9          119.5           65.7
    0.3819               -39.3         0.4079          77.01          38.22         -9.487          8.341          152.4          60.81          107.9          119.5          65.69
    0.4137               -39.3         0.4125          77.01          38.22         -9.484          8.338          152.3          60.81          107.9          119.4          65.68
    0.4455              -39.31         0.4174          77.01          38.22          -9.48          8.335          152.2          60.81          107.8          119.4          65.67
    0.4773              -39.31         0.4228          77.01          38.21         -9.476          8.331          152.1          60.81          107.8          119.4          65.66
    0.5091              -39.32         0.4286          77.01          38.21         -9.472          8.327          152.0           60.8          107.8          119.4          65.65
     0.541              -39.32         0.4349          77.01          38.21         -9.467          8.322          151.8           60.8          107.7          119.3          65.63
    0.5728              -39.33         0.4419           77.0          38.21         -9.462          8.317          151.7           60.8          107.6          119.3          65.62
    0.6046              -39.33         0.4494           77.0           38.2         -9.456          8.312          151.5           60.8          107.6          119.3           65.6
    0.6364              -39.34         0.4578           77.0           38.2          -9.45          8.306          151.3          60.79          107.5          119.2          65.58
    0.6683              -39.35         0.4669           77.0          38.19         -9.443            8.3          151.2          60.79          107.5          119.2          65.56
    0.7001              -39.36          0.477          76.99          38.19         -9.435          8.293          150.9          60.79          107.4          119.2          65.54
    0.7319              -39.37         0.4882          76.99          38.18         -9.427          8.285          150.7          60.78          107.3          119.1          65.51
    0.7637              -39.38         0.5007          76.99          38.18         -9.417          8.276          150.5          60.78          107.2          119.1          65.48
    0.7955              -39.39         0.5146          76.98          38.17         -9.407          8.266          150.2          60.77          107.1          119.0          65.45
    0.8274               -39.4         0.5301          76.98          38.16         -9.395          8.255          149.8          60.77          107.0          118.9          65.41
    0.8592              -39.42         0.5477          76.98          38.16         -9.382          8.243          149.5          60.76          106.8          118.8          65.37
     0.891              -39.44         0.5674          76.97          38.15         -9.367          8.229          149.1          60.75          106.7          118.8          65.33
    0.9228              -39.46         0.5899          76.96          38.13          -9.35          8.213          148.6          60.74          106.5          118.7          65.28
    0.9547              -39.48         0.6156          76.96          38.12         -9.331          8.195          148.1          60.73          106.3          118.5          65.22
    0.9865               -39.5          0.645          76.95          38.11         -9.309          8.174          147.4          60.72          106.1          118.4          65.15
     1.018              -39.53          0.679          76.94          38.09         -9.283           8.15          146.7          60.71          105.8          118.3          65.07
      1.05              -39.57         0.7185          76.93          38.07         -9.253          8.122          145.9           60.7          105.5          118.1          64.98
     1.082              -39.61         0.7647          76.92          38.05         -9.218           8.09          145.0          60.68          105.1          117.9          64.88
     1.114              -39.65         0.8191           76.9          38.03         -9.177          8.051          143.8          60.66          104.7          117.6          64.75
     1.146              -39.71         0.8838          76.89          37.99         -9.129          8.006          142.5          60.64          104.2          117.4          64.61
     1.177              -39.78         0.9614          76.87          37.96          -9.07          7.951          140.9          60.61          103.6          117.0          64.43
     1.209              -39.86          1.055          76.84          37.91           -9.0          7.885          138.9          60.57          102.8          116.6          64.21
     1.241              -39.96           1.17          76.81          37.86         -8.913          7.804          136.5          60.53          101.9          116.1          63.95
     1.273              -40.08          1.311          76.77          37.79         -8.807          7.704          133.6          60.48          100.8          115.5          63.63
     1.305              -40.23          1.488          76.73           37.7         -8.674          7.579          129.9          60.42          99.45          114.7          63.23
     1.337              -40.42           1.71          76.67           37.6         -8.506          7.422          125.3          60.33          97.71          113.7          62.72
     1.368              -40.67          1.993          76.59          37.46         -8.293          7.223          119.4          60.23          95.49          112.4          62.07
       1.4              -40.98          2.354           76.5          37.29         -8.021          6.968          111.8           60.1          92.66          110.8          61.25
     1.432              -41.38          2.819          76.37          37.07         -7.671           6.64          102.2          59.93          89.02          108.8          60.19
     1.464               -41.9          3.411          76.22          36.78         -7.225          6.222          89.83          59.71          84.38          106.1          58.83
     1.496              -42.54          4.157          76.02          36.43         -6.663          5.696          74.31          59.44          78.54          102.8          57.13
     1.527              -43.33          5.065          75.78          35.99         -5.979          5.055          55.39          59.11          71.42          98.79          55.06
